<svg width="18" height="99" viewBox="0 0 18 99" fill="none" xmlns="http://www.w3.org/2000/svg">
<path d="M0 17.5L18 0V81L0 98.5V17.5Z" fill="white"/>
<path d="M5.7002 74.1033C5.7002 75.2193 6.3032 75.7683 7.2122 75.7683L7.8692 75.7683C8.8862 75.7683 9.4712 75.1923 9.4712 74.1213L9.4712 70.8903C9.47119 70.6473 9.5972 70.5393 9.8492 70.5393L10.1372 70.5393C10.3802 70.5393 10.5242 70.6473 10.5242 70.8993L10.5242 75.5253C10.5242 75.6783 10.5962 75.7593 10.7582 75.7593L11.7662 75.7593C11.9192 75.7593 12.0002 75.6783 12.0002 75.5253L12.0002 70.5753C12.0002 69.4503 11.3972 68.9103 10.4972 68.9103L9.77719 68.9103C8.76019 68.9103 8.17519 69.4863 8.17519 70.5483L8.1752 73.7883C8.1752 74.0223 8.0492 74.1303 7.7972 74.1303L7.5632 74.1303C7.3202 74.1303 7.1852 74.0223 7.1852 73.7793L7.1852 69.3783C7.1852 69.2163 7.10419 69.1443 6.94219 69.1443L5.9342 69.1443C5.7812 69.1443 5.7002 69.2163 5.7002 69.3783L5.7002 74.1033Z" fill="#FF1848"/>
<path d="M5.70019 64.0834C5.70019 65.9284 6.34819 66.6304 8.07619 66.6304L9.62419 66.6304C11.3522 66.6304 12.0002 65.9284 12.0002 64.0834L12.0002 60.0154C12.0002 59.8624 11.9192 59.7814 11.7662 59.7814L10.7132 59.7814C10.5602 59.7814 10.4792 59.8624 10.4792 60.0154L10.4792 64.0204C10.4792 64.8034 10.2722 64.9924 9.46219 64.9924L8.23819 64.9924C7.42819 64.9924 7.22119 64.8034 7.22119 64.0204L7.22119 60.0154C7.22119 59.8624 7.14019 59.7814 6.98719 59.7814L5.93419 59.7814C5.78119 59.7814 5.70019 59.8624 5.70019 60.0154L5.70019 64.0834Z" fill="#FF1848"/>
<path d="M5.70019 57.2303C5.70019 57.4103 5.79019 57.5003 5.97019 57.5003L11.7662 57.5003C11.9192 57.5003 12.0002 57.4193 12.0002 57.2663L12.0002 56.0963C12.0002 55.9433 11.9192 55.8623 11.7662 55.8623L10.0742 55.8623L10.0742 53.3423L11.8742 52.0193C11.9552 51.9563 12.0002 51.9023 12.0002 51.7313L12.0002 50.3453C12.0002 50.1563 11.8202 50.1473 11.7392 50.2103L9.90319 51.6593C9.70519 50.7593 9.10219 50.3903 8.11219 50.3903L7.56319 50.3903C6.34819 50.3903 5.70019 50.9483 5.70019 52.3613L5.70019 57.2303ZM7.27519 55.8623C7.19419 55.8623 7.15819 55.8263 7.15819 55.7543L7.15819 52.6853C7.15819 52.1903 7.35619 52.0283 7.77919 52.0283L8.16619 52.0283C8.58919 52.0283 8.78719 52.1903 8.78719 52.6853L8.78719 55.8623L7.27519 55.8623Z" fill="#FF1848"/>
<path d="M5.70019 45.6509C5.70019 47.4959 6.34819 48.1979 8.07619 48.1979L9.62419 48.1979C11.3522 48.1979 12.0002 47.4959 12.0002 45.6509L12.0002 42.8429C12.0002 40.9979 11.3522 40.2959 9.62419 40.2959L8.07619 40.2959C6.34819 40.2959 5.70019 40.9979 5.70019 42.8429L5.70019 45.6509ZM8.20219 46.5599C7.38319 46.5599 7.18519 46.3709 7.18519 45.5879L7.18519 42.9059C7.18519 42.1229 7.38319 41.9339 8.20219 41.9339L9.49819 41.9339C10.3172 41.9339 10.5242 42.1229 10.5242 42.9059L10.5242 45.5879C10.5242 46.3709 10.3172 46.5599 9.49819 46.5599L8.20219 46.5599Z" fill="#FF1848"/>
<path d="M5.70019 37.6478C5.70019 37.8008 5.78119 37.8818 5.93419 37.8818L9.62419 37.8818C11.3522 37.8818 12.0002 37.1798 12.0002 35.3348L12.0002 31.6358C12.0002 31.4738 11.9192 31.3928 11.7662 31.3928L10.7132 31.3928C10.5602 31.3928 10.4792 31.4738 10.4792 31.6358L10.4792 35.2718C10.4792 36.0548 10.2722 36.2438 9.46219 36.2438L5.93419 36.2438C5.78119 36.2438 5.70019 36.3248 5.70019 36.4778L5.70019 37.6478Z" fill="#FF1848"/>
<path d="M5.70019 29.1963C5.70019 29.3493 5.78119 29.4303 5.93419 29.4303L9.62419 29.4303C11.3522 29.4303 12.0002 28.7283 12.0002 26.8833L12.0002 23.1843C12.0002 23.0223 11.9192 22.9413 11.7662 22.9413L10.7132 22.9413C10.5602 22.9413 10.4792 23.0223 10.4792 23.1843L10.4792 26.8203C10.4792 27.6033 10.2722 27.7923 9.46219 27.7923L5.93419 27.7923C5.78119 27.7923 5.70019 27.8733 5.70019 28.0263L5.70019 29.1963Z" fill="#FF1848"/>
</svg>
