<svg fill="none" height="46" viewBox="0 0 246 46" width="246" xmlns="http://www.w3.org/2000/svg"><g clip-rule="evenodd" fill="#fff" fill-rule="evenodd"><path d="m22.5 22.8755-15.22685-8.9117 3.75505-5.67998-6.0282-3.54054 2.28607-3.867792 10.10943 5.937712-3.7509 5.6718 8.8554 5.183 8.8554-5.183-3.7509-5.6718 10.1094-5.937712 2.2861 3.867792-6.0282 3.54054 3.7551 5.67998z"/><path d="m22.5 40.7837-6.8246-3.9082-1.6754 4.1324 8.5 4.8676 8.5-4.8674-1.6754-4.1326z"/><path d="m0 27.8755v5.3273l6.28666 3.6727 1.71334-4.3162z"/><path d="m3 21.8755v4.8838l5.40919 3.1162 1.59081-3.9543z"/><path d="m22.4999 8.87549 3.5001 3.50111-3.5001 3.4989-3.4999-3.4989z"/><path d="m19 23.0607-12-7.1852v5.2875l6.4133 3.8647-4.83465 12.4972 3.91665 2.3506z"/><path d="m45 27.8755v5.3273l-6.2867 3.6727-1.7133-4.3162z"/><path d="m42 21.8755v4.8838l-5.4092 3.1162-1.5908-3.9543z"/><path d="m26 23.0607 12-7.1852v5.2875l-6.4133 3.8647 4.8347 12.4972-3.9167 2.3506z"/><path d="m165 31.8755 1.23-3.1476h1.306v-11.7046h-2.536l1.23-3.1478h6.77l-1.232 3.1478h-1.3v11.7046h2.532l-1.232 3.1476z"/><path d="m74 29.2903.308-.1837c3.0584-1.8246 4.6925-5.9302 4.8596-12.2107h-2.6305l1.2844-3.0204h8.3653l1.2845 3.0204h-2.6375c.1671 6.2765 1.801 10.3831 4.858 12.2068l.3082.1838-1.5818 2.5852-.3082-.1838c-3.3958-2.0258-5.4437-5.8854-6.1094-11.4996-.6657 5.6154-2.714 9.477-6.1106 11.5034l-.3082.1838z"/><path d="m91 29.2895.3119-.1838c3.0969-1.824 4.7517-5.9305 4.921-12.2089h-2.6627l1.3011-3.0213h15.2417l1.301 3.0213h-2.647c.17 6.2764 1.825 10.3843 4.921 12.2083l.312.1838-1.602 2.5858-.312-.1838c-4.076-2.4009-6.235-7.3773-6.419-14.7941h-1.597v14.246h-3.099v-14.246h-1.6381c-.184 7.4174-2.3427 12.394-6.4185 14.7949l-.3121.1838z"/><path d="m148 29.2903.308-.1837c3.057-1.8244 4.692-5.9302 4.859-12.2107h-2.63l1.283-3.0204h8.366l1.285 3.0204h-2.636c.165 6.2765 1.8 10.3831 4.857 12.2068l.308.1838-1.582 2.5852-.308-.1838c-3.396-2.0258-5.445-5.8862-6.11-11.4996-.665 5.6154-2.714 9.4768-6.11 11.5034l-.308.1838z"/><path d="m137 21.8755c4.068-1.1537 5.499-3.4526 6-5h-6zm7.721 9.8887c-3.563-1.1692-6.319-3.0771-8.208-5.6798v5.1283h-3.029v-6.0565h-3.484l1.271-3.0492h2.213v-7.0637h.044v-1.1678h12.215l.063 1.4587c.004.0875.075 2.1688-1.285 4.4006-.831 1.3651-2.48 3.2124-5.646 4.4282 1.52 2.1417 3.799 3.7225 6.786 4.7021l.339.1109-.94 2.8995z"/><path d="m119.946 31.8755-.397-.2904c-5.549-4.0518-5.549-14.0519-5.549-17.3378v-.3718h3.058v.3718c0 2.767 0 11.1431 3.894 14.4791h3.382v-14.8509h3.057v14.8509h2.609l-1.283 3.1491z"/><path d="m199 29.2901.308-.1838c3.059-1.8243 4.693-5.931 4.861-12.2121h-2.633l1.286-3.0187h8.364l1.286 3.0187h-2.639c.168 6.2771 1.802 10.3846 4.859 12.2085l.308.1837-1.583 2.5855-.307-.1838c-3.397-2.0262-5.444-5.8862-6.109-11.4992-.665 5.6142-2.714 9.4764-6.111 11.5028l-.309.1838z"/><path d="m230 29.2901.308-.1838c3.057-1.8245 4.692-5.931 4.859-12.2121h-2.63l1.285-3.0187h8.366l1.283 3.0187h-2.636c.165 6.2771 1.8 10.3846 4.857 12.2085l.308.1837-1.582 2.5855-.308-.1838c-3.396-2.0262-5.443-5.887-6.11-11.5012-.665 5.6162-2.714 9.4782-6.11 11.5048l-.308.1838z"/><path d="m184.462 31.8755v-7.8605l3.063.9689v3.7407h6.429c-.636-5.9109-3.836-9.8713-9.516-11.7758l-.438-.1451.928-2.9282h13.072l-1.286 3.1511h-5.572c3.805 3.0522 5.817 7.4961 5.985 13.2261l.047 1.6228z"/><path d="m59.4613 31.8755v-7.8605l3.0646.9688v3.7408h6.4277c-.6359-5.9108-3.836-9.8712-9.5165-11.7758l-.4371-.145.9274-2.9283h13.0726l-1.2871 3.1511h-5.5716c3.8047 3.0523 5.8168 7.496 5.9846 13.226l.0473 1.6229z"/><path d="m225.548 31.2292c-5.084-1.6844-11.206-5.792-11.502-15.7936l-.046-1.5601h14l-1.252 3.0273h-9.618c.542 5.038 3.026 8.6253 7.39 10.6731v-4.5317h-3.308l1.25-3.0293h5.037v11.8606z"/></g></svg>