<svg fill="none" height="94" viewBox="0 0 88 94" width="88" xmlns="http://www.w3.org/2000/svg"><path d="m59.984 36.5953 12.3188 32.3739-10.9346-3.2256-9.4008-24.5501zm-9.513-22.2474-6.3919-10.82172-6.3936 10.82172 6.3936 10.82zm25.4553 55.6803 11.0789 3.2704-9.7731-24.1433-6.4008 8.4223zm-22.7689.6935-4.6318 2.6772-.0623 10.5476 16.5872-9.6766zm.7126 14.3089 3.4846 8.5442 23.9357-14.4433-11.8414-3.532zm-36.6981-27.4584-6.4007-8.4223-9.773153 24.1433 11.077153-3.2704zm18.8515-16.3787-8.0023-4.6053-12.3242 32.381 10.9346-3.2256zm8.0076-.2921 27.4434-16.0417-9.9672-24.292073-6.3652 8.370313 4.8402 12.00626-15.9832 9.4348-15.9833-9.4348 4.8402-12.00626-6.3634-8.36316-9.9672 24.29202 27.4345 16.0418.0089.0305.0213-.0126.0232.0126zm-37.31266 38.2301 23.93576 14.4433 3.4845-8.5442-15.5896-9.4311zm28.13276-8.4098-11.893 3.5553 16.5872 9.6767-.0624-10.5476z" fill="#ff1848"/></svg>