<svg fill="none" height="150" viewBox="0 0 1276 150" width="1276" xmlns="http://www.w3.org/2000/svg" xmlns:xlink="http://www.w3.org/1999/xlink"><linearGradient id="a"><stop offset="0" stop-color="#c8d0d8"/><stop offset=".520833" stop-color="#e4e9ed"/><stop offset="1" stop-color="#e3e8ec"/></linearGradient><linearGradient id="b" gradientUnits="userSpaceOnUse" x1="750.447" x2="750.447" xlink:href="#a" y1="26.9766" y2="149.687"/><linearGradient id="c" gradientUnits="userSpaceOnUse" x1="157.348" x2="157.348" xlink:href="#a" y1="26.9766" y2="149.687"/><linearGradient id="d" gradientUnits="userSpaceOnUse" x1="297.099" x2="297.099" xlink:href="#a" y1="26.9766" y2="149.687"/><linearGradient id="e" gradientUnits="userSpaceOnUse" x1="661.821" x2="661.821" xlink:href="#a" y1="26.9766" y2="149.687"/><linearGradient id="f" gradientUnits="userSpaceOnUse" x1="539.112" x2="539.112" xlink:href="#a" y1="26.9766" y2="149.687"/><linearGradient id="g" gradientUnits="userSpaceOnUse" x1="430.036" x2="430.036" xlink:href="#a" y1="26.9766" y2="149.687"/><linearGradient id="h" gradientUnits="userSpaceOnUse" x1="1009.5" x2="1009.5" xlink:href="#a" y1="26.9766" y2="149.687"/><linearGradient id="i" gradientUnits="userSpaceOnUse" x1="1220.83" x2="1220.83" xlink:href="#a" y1="26.9766" y2="149.687"/><linearGradient id="j" gradientUnits="userSpaceOnUse" x1="900.426" x2="900.426" xlink:href="#a" y1="26.9766" y2="149.687"/><linearGradient id="k" gradientUnits="userSpaceOnUse" x1="48.2714" x2="48.2714" xlink:href="#a" y1="26.9766" y2="149.687"/><linearGradient id="l" gradientUnits="userSpaceOnUse" x1="1104.94" x2="1104.94" xlink:href="#a" y1="26.9766" y2="149.687"/><g fill="#e90506"><path d="m6.8125.299805h12.7466c.0374.007487.0561.026204.0561.056152v2.751463c0 .03744-.0187.05615-.0561.05615h-10.68019c-.96582 0-1.6097.52784-1.93164 1.5835-.02247.18717-.0337.33317-.0337.43799v2.33594c0 .88346.44174 1.50488 1.3252 1.86425.17969.07487.39307.11231.64014.11231h10.68019c.0374 0 .0561.01497.0561.04492v2.75142c0 .0375-.0187.0562-.0561.0562h-12.66799c-1.31022 0-2.39957-.5316-3.26806-1.5947-.37435-.5391-.56153-1.09313-.56153-1.66214v-5.61523c0-.9808.55778-1.8418 1.67334-2.58301.72624-.39681 1.41879-.595215 2.07764-.595215z"/><path d="m20.7944.299805h3.7959l4.4473 4.795405c2.8675-3.12955 4.3424-4.728022 4.4248-4.795405h3.7959c.0374.007487.0562.026204.0562.056152-.3444.344401-2.4633 2.642903-6.3565 6.895503v5.04244c0 .0375-.0187.0562-.0561.0562h-3.751c-.0375 0-.0562-.0187-.0562-.0562v-5.04244l-6.3564-6.917964z"/><path d="m38.4937.299805h12.6679c1.4375 0 2.5868.621419 3.4478 1.864255.2545.50163.3818.96957.3818 1.40381v.17969c0 .95833-.4679 1.80436-1.4038 2.53808.9359.78614 1.4038 1.56853 1.4038 2.34717v.53907c0 .96582-.5503 1.82682-1.6509 2.58302-.7412.3594-1.2802.539-1.6172.539 0 .0375-.0449.0562-.1347.0562h-13.0947c-.0375 0-.0562-.0187-.0562-.0562v-11.937943c.0075-.037435.0262-.056152.0562-.056152zm3.7959 2.863765v1.85303h7.8164c.4716 0 .7973-.20589.977-.61767.03-.17969.0449-.28825.0449-.32569 0-.44173-.2695-.74495-.8086-.90967zm0 4.46973v1.86426h7.8164c.4716 0 .7973-.20964.977-.62891.03-.17969.0449-.2845.0449-.31445 0-.37435-.1946-.65511-.584-.84229-.1197-.0524-.2657-.07861-.4379-.07861z"/><path d="m59.8315.299805h8.9507c1.3477 0 2.4445.520345 3.2906 1.561035.3968.55404.5952 1.13802.5952 1.75195v5.44678c0 1.22033-.6851 2.18243-2.0552 2.88623-.5765.2695-1.1867.4043-1.8306.4043h-8.8384c-1.3102 0-2.3995-.5316-3.268-1.5947-.3744-.5316-.5615-1.08564-.5615-1.66214v-5.50293c0-1.28027.7561-2.27604 2.2685-2.987303.599-.202148 1.0819-.303222 1.4487-.303222zm.1348 4.829105v2.36963c0 .9733.5054 1.62093 1.5161 1.94287.1423.03743.292.05615.4492.05615h4.9414c.8835 0 1.5012-.46794 1.8531-1.40381.0524-.13477.0786-.31445.0786-.53906v-2.29102c0-1.02571-.4754-1.71077-1.4263-2.05517-.277-.02995-.5203-.04493-.73-.04493h-4.7168c-.9059 0-1.5348.4642-1.8867 1.39258-.0524.18718-.0786.37809-.0786.57276z"/><path d="m73.8472.299805h12.6904c1.153 0 2.16.441731 3.021 1.325195.5241.60645.7861 1.26156.7861 1.96533v2.17871c0 1.13054-.6214 2.06641-1.8642 2.80762l-.4829.21338 2.3471 3.53756-.0561.0225h-4.5596c-.1123-.1273-.8573-1.2316-2.2349-3.31299h-5.851v3.25679c0 .0375-.0188.0562-.0562.0562h-3.7397c-.0375 0-.0562-.0187-.0562-.0562v-11.937943c.0075-.037435.0262-.056152.0562-.056152zm3.7959 2.863765v3.00977h7.311c.7786 0 1.2728-.34066 1.4824-1.02197.03-.15723.0449-.31071.0449-.46045 0-.72624-.3032-1.20915-.9096-1.44873-.1872-.05241-.3781-.07862-.5728-.07862z"/><path d="m95.2188.299805h12.7462c.038.007487.056.026204.056.056152v2.751463c0 .03744-.018.05615-.056.05615h-10.6798c-.9135 0-1.5498.48291-1.9092 1.44873-.0375.20215-.0562.34815-.0562.43799v2.47071c0 .88346.4418 1.50488 1.3252 1.86425.1797.07487.3931.11231.6402.11231h6.8728v-2.2124c.008-.03744.026-.05616.056-.05616h3.751c.038.00749.056.02621.056.05616v5.00874c0 .0375-.018.0562-.056.0562h-12.6676c-1.168 0-2.1825-.4417-3.0435-1.3252-.5241-.6139-.7861-1.26904-.7861-1.96533v-5.4917c0-1.22038.7-2.18245 2.1001-2.886229.6139-.254558 1.1642-.381836 1.6509-.381836z"/><path d="m124.126.299805h12.747c.037.007487.056.026204.056.056152v2.751463c0 .03744-.019.05615-.056.05615h-11.669c-.651.08236-.977.39681-.977.94336 0 .36687.198.64388.595.83106.12.05241.262.07861.427.07861h7.929c1.115 0 2.104.44173 2.965 1.3252.524.60644.786 1.25407.786 1.94287v.83105c0 1.17548-.685 2.12628-2.055 2.85258-.569.2545-1.153.3818-1.752.3818h-12.691c-.037 0-.056-.0187-.056-.0562v-2.75142c.007-.02995.026-.04492.056-.04492h11.612c.472 0 .798-.20964.978-.62891.029-.17969.044-.2845.044-.31445 0-.37435-.194-.65511-.584-.84229-.119-.0524-.265-.07861-.438-.07861h-7.816c-1.288 0-2.366-.50163-3.234-1.50488-.412-.54655-.618-1.12305-.618-1.72949v-.83106c0-1.10058.61-2.01025 1.831-2.729003.696-.32194 1.336-.501627 1.92-.539062z"/><path d="m145.138.299805h3.83c.075.067383.865 1.381345 2.369 3.941895 3.04 5.15853 4.624 7.8538 4.751 8.0859v.0225h-4.425c-.105-.1048-1.471-2.40332-4.099-6.89551-.322-.53906-.49-.80859-.505-.80859-2.958 5.02376-4.478 7.5918-4.56 7.7041h-4.447v-.0562c4.552-7.734 6.914-11.732051 7.086-11.994095z"/><path d="m157.267.299805h3.852l5.144 5.963375c3.399-3.97558 5.106-5.963375 5.121-5.963375h3.863c.03.007487.045.026204.045.056152v11.937943c0 .0375-.015.0562-.045.0562h-3.751c-.037 0-.056-.0187-.056-.0562v-7.10884l-5.144 5.97464h-.056c-.03-.0075-1.755-1.99906-5.177-5.97464v7.10884c0 .0375-.019.0562-.056.0562h-3.74c-.037 0-.056-.0187-.056-.0562v-11.937943c.007-.037435.026-.056152.056-.056152z"/><path d="m176.471.299805h3.74c.037.007487.056.026204.056.056152v6.985353c0 1.05566.461 1.74446 1.381 2.0664.21.0599.405.08985.584.08985h6.873v-9.141603c.008-.037435.027-.056152.057-.056152h3.751c.037.007487.056.026204.056.056152v11.937943c0 .0375-.019.0562-.056.0562h-12.837c-1.093 0-2.07-.4567-2.931-1.3701-.487-.5915-.73-1.2204-.73-1.88674v-8.737303c.008-.037435.026-.056152.056-.056152z"/><path d="m194.148.299805h12.69c1.153 0 2.16.441731 3.021 1.325195.524.60645.787 1.26156.787 1.96533v2.17871c0 1.13054-.622 2.06641-1.865 2.80762l-.483.21338 2.348 3.53756-.057.0225h-4.559c-.113-.1273-.857-1.2316-2.235-3.31299h-5.851v3.25679c0 .0375-.019.0562-.056.0562h-3.74c-.037 0-.056-.0187-.056-.0562v-11.937943c.007-.037435.026-.056152.056-.056152zm3.796 2.863765v3.00977h7.311c.779 0 1.273-.34066 1.482-1.02197.03-.15723.045-.31071.045-.46045 0-.72624-.303-1.20915-.909-1.44873-.188-.05241-.379-.07862-.573-.07862z"/><path d="m218.855.299805h3.83c.074.067383.864 1.381345 2.369 3.941895 3.04 5.15853 4.623 7.8538 4.751 8.0859v.0225h-4.425c-.105-.1048-1.471-2.40332-4.099-6.89551-.322-.53906-.491-.80859-.506-.80859-2.957 5.02376-4.477 7.5918-4.559 7.7041h-4.447v-.0562c4.552-7.734 6.914-11.732051 7.086-11.994095z"/><path d="m230.984.299805h3.74c.037.007487.056.026204.056.056152v11.937943c0 .0375-.019.0562-.056.0562h-3.74c-.038 0-.056-.0187-.056-.0562v-11.937943c.007-.037435.026-.056152.056-.056152z"/><path d="m529.779.299805h8.95c1.348 0 2.445.520345 3.291 1.561035.397.55404.595 1.13802.595 1.75195v5.44678c0 1.22033-.685 2.18243-2.055 2.88623-.576.2695-1.187.4043-1.831.4043h-8.838c-1.31 0-2.399-.5316-3.268-1.5947-.374-.5316-.561-1.08564-.561-1.66214v-5.50293c0-1.28027.756-2.27604 2.268-2.987303.599-.202148 1.082-.303222 1.449-.303222zm.135 4.829105v2.36963c0 .9733.505 1.62093 1.516 1.94287.142.03743.292.05615.449.05615h4.941c.884 0 1.501-.46794 1.853-1.40381.053-.13477.079-.31445.079-.53906v-2.29102c0-1.02571-.475-1.71077-1.426-2.05517-.277-.02995-.521-.04493-.73-.04493h-4.717c-.906 0-1.535.4642-1.887 1.39258-.052.18718-.078.37809-.078.57276z"/><path d="m543.794.299805h12.769c1.138 0 2.172.49414 3.1 1.482425.419.59147.629 1.17545.629 1.75195v8.75972c0 .0375-.019.0562-.056.0562h-3.751c-.038 0-.056-.0187-.056-.0562v-6.97408c0-1.06315-.457-1.75569-1.37-2.07763-.218-.05241-.416-.07862-.596-.07862h-6.873v9.13033c0 .0375-.018.0562-.056.0562h-3.74c-.037 0-.056-.0187-.056-.0562v-11.937943c.008-.037435.026-.056152.056-.056152z"/><path d="m561.471.299805h12.769c1.138 0 2.171.49414 3.1 1.482425.419.59147.629 1.17545.629 1.75195v8.75972c0 .0375-.019.0562-.056.0562h-3.751c-.038 0-.057-.0187-.057-.0562v-6.97408c0-1.06315-.456-1.75569-1.37-2.07763-.217-.05241-.415-.07862-.595-.07862h-6.873v9.13033c0 .0375-.019.0562-.056.0562h-3.74c-.037 0-.056-.0187-.056-.0562v-11.937943c.008-.037435.026-.056152.056-.056152z"/><path d="m586.178.299805h3.83c.075.067383.865 1.381345 2.369 3.941895 3.04 5.15853 4.624 7.8538 4.751 8.0859v.0225h-4.425c-.105-.1048-1.471-2.40332-4.099-6.89551-.322-.53906-.49-.80859-.505-.80859-2.958 5.02376-4.478 7.5918-4.56 7.7041h-4.447v-.0562c4.552-7.734 6.914-11.732051 7.086-11.994095z"/><path d="m598.307 4.83691h9.321c.038 0 .057.01498.057.04493v2.75146c0 .03744-.019.05615-.057.05615h-9.321c-.037 0-.056-.01871-.056-.05615v-2.75146c.007-.02995.026-.04493.056-.04493z"/><path d="m608.864.299805h12.668c1.437 0 2.586.621419 3.447 1.864255.255.50163.382.96957.382 1.40381v.17969c0 .95833-.468 1.80436-1.403 2.53808.935.78614 1.403 1.56853 1.403 2.34717v.53907c0 .96582-.55 1.82682-1.651 2.58302-.741.3594-1.28.539-1.617.539 0 .0375-.045.0562-.135.0562h-13.094c-.038 0-.056-.0187-.056-.0562v-11.937943c.007-.037435.026-.056152.056-.056152zm3.796 2.863765v1.85303h7.816c.472 0 .797-.20589.977-.61767.03-.17969.045-.28825.045-.32569 0-.44173-.269-.74495-.809-.90967zm0 4.46973v1.86426h7.816c.472 0 .797-.20964.977-.62891.03-.17969.045-.2845.045-.31445 0-.37435-.195-.65511-.584-.84229-.12-.0524-.266-.07861-.438-.07861z"/><path d="m626.541.299805h3.739c.038.007487.056.026204.056.056152v6.985353c0 1.05566.461 1.74446 1.382 2.0664.209.0599.404.08985.584.08985h6.873v-9.141603c.007-.037435.026-.056152.056-.056152h3.751c.037.007487.056.026204.056.056152v11.937943c0 .0375-.019.0562-.056.0562h-12.836c-1.094 0-2.071-.4567-2.932-1.3701-.486-.5915-.73-1.2204-.73-1.88674v-8.737303c.008-.037435.027-.056152.057-.056152z"/><path d="m647.912.299805h12.747c.037.007487.056.026204.056.056152v2.751463c0 .03744-.019.05615-.056.05615h-10.68c-.914 0-1.55.48291-1.91 1.44873-.037.20215-.056.34815-.056.43799v2.47071c0 .88346.442 1.50488 1.325 1.86425.18.07487.393.11231.641.11231h6.873v-2.2124c.007-.03744.026-.05616.056-.05616h3.751c.037.00749.056.02621.056.05616v5.00874c0 .0375-.019.0562-.056.0562h-12.668c-1.168 0-2.183-.4417-3.044-1.3252-.524-.6139-.786-1.26904-.786-1.96533v-5.4917c0-1.22038.7-2.18245 2.1-2.886229.614-.254558 1.164-.381836 1.651-.381836z"/><path d="m661.894.299805h16.441c.038.007487.057.026204.057.056152v2.751463c0 .03744-.019.05615-.057.05615h-16.441c-.037 0-.056-.01871-.056-.05615v-2.751463c.007-.037435.026-.056152.056-.056152zm0 4.716795h16.441c.038.00749.057.02621.057.05615v2.5044c0 .03743-.019.05615-.057.05615h-16.441c-.037 0-.056-.01872-.056-.05615v-2.5044c.007-.03743.026-.05615.056-.05615zm0 4.48096h16.441c.038 0 .057.01497.057.04492v2.75142c0 .0375-.019.0562-.057.0562h-16.441c-.037 0-.056-.0187-.056-.0562v-2.75142c.007-.02995.026-.04492.056-.04492z"/><path d="m679.571.299805h3.74c.037.007487.056.026204.056.056152v11.937943c0 .0375-.019.0562-.056.0562h-3.74c-.038 0-.056-.0187-.056-.0562v-11.937943c.007-.037435.026-.056152.056-.056152z"/><path d="m688.252.299805h12.747c.037.007487.056.026204.056.056152v2.751463c0 .03744-.019.05615-.056.05615h-11.669c-.651.08236-.977.39681-.977.94336 0 .36687.198.64388.595.83106.12.05241.262.07861.427.07861h7.929c1.115 0 2.104.44173 2.965 1.3252.524.60644.786 1.25407.786 1.94287v.83105c0 1.17548-.685 2.12628-2.055 2.85258-.569.2545-1.153.3818-1.752.3818h-12.691c-.037 0-.056-.0187-.056-.0562v-2.75142c.007-.02995.026-.04492.056-.04492h11.612c.472 0 .798-.20964.977-.62891.03-.17969.045-.2845.045-.31445 0-.37435-.194-.65511-.584-.84229-.119-.0524-.265-.07861-.438-.07861h-7.816c-1.288 0-2.366-.50163-3.234-1.50488-.412-.54655-.618-1.12305-.618-1.72949v-.83106c0-1.10058.61-2.01025 1.831-2.729003.696-.32194 1.336-.501627 1.92-.539062z"/><path d="m702.234.299805h3.74c.037.007487.056.026204.056.056152v4.660643h8.838v-4.660643c.008-.037435.026-.056152.056-.056152h3.751c.038.007487.056.026204.056.056152v11.937943c0 .0375-.018.0562-.056.0562h-3.751c-.037 0-.056-.0187-.056-.0562v-4.6606h-8.838v4.6606c0 .0375-.019.0562-.056.0562h-3.74c-.038 0-.056-.0187-.056-.0562v-11.937943c.007-.037435.026-.056152.056-.056152z"/><path d="m726.941.299805h3.83c.074.067383.864 1.381345 2.369 3.941895 3.04 5.15853 4.623 7.8538 4.751 8.0859v.0225h-4.425c-.105-.1048-1.471-2.40332-4.099-6.89551-.322-.53906-.491-.80859-.506-.80859-2.957 5.02376-4.477 7.5918-4.559 7.7041h-4.448v-.0562c4.553-7.734 6.915-11.732051 7.087-11.994095z"/><path d="m1169.12.299805h3.74c.03.007487.05.026204.05.056152v4.795413l7.49-4.851565h5.18v.033691c-.32.254557-2.43 1.628414-6.33 4.121584v.02246l6.33 7.81636v.0337h-4.93c-.05-.0374-1.6-1.9428-4.66-5.71627l-3.08 1.96533v3.71724c0 .0375-.02.0562-.05.0562h-3.74c-.04 0-.06-.0187-.06-.0562v-11.937943c.01-.037435.03-.056152.06-.056152z"/><path d="m1193.8.299805h3.83c.08.067383.87 1.381345 2.37 3.941895 3.04 5.15853 4.62 7.8538 4.75 8.0859v.0225h-4.42c-.11-.1048-1.47-2.40332-4.1-6.89551-.32-.53906-.49-.80859-.51-.80859-2.95 5.02376-4.47 7.5918-4.56 7.7041h-4.44v-.0562c4.55-7.734 6.91-11.732051 7.08-11.994095z"/><path d="m1205.93.299805h3.74c.04.007487.06.026204.06.056152v11.937943c0 .0375-.02.0562-.06.0562h-3.74c-.04 0-.05-.0187-.05-.0562v-11.937943c0-.037435.02-.056152.05-.056152z"/><path d="m1223.61.299805h3.75c.04.007487.06.026204.06.056152v8.950683c0 .80856-.51 1.59096-1.52 2.34716-.76.4642-1.55.6963-2.35.6963h-12.63c-.04 0-.06-.0187-.06-.0562v-4.98628c.01-.03744.03-.05616.06-.05616h3.74c.03.00749.05.02621.05.05616v2.18994h6.88c.87 0 1.49-.44173 1.86-1.3252.07-.20215.1-.41927.1-.65136v-7.165043c.01-.037435.03-.056152.06-.056152z"/><path d="m1228.59.299805h3.74c.04.007487.06.026204.06.056152v6.985353c0 1.05566.46 1.74446 1.38 2.0664.21.0599.41.08985.59.08985h6.87v-9.141603c.01-.037435.02-.056152.05-.056152h3.76c.03.007487.05.026204.05.056152v11.937943c0 .0375-.02.0562-.05.0562h-12.84c-1.09 0-2.07-.4567-2.93-1.3701-.49-.5915-.73-1.2204-.73-1.88674v-8.737303c.01-.037435.02-.056152.05-.056152z"/></g><path clip-rule="evenodd" d="m723.178 149.687 8.385-21.458h8.905v-79.7932h-17.29l8.385-21.4592h46.153l-8.399 21.4592h-8.865v79.7932h17.264l-8.399 21.458z" fill="url(#b)" fill-rule="evenodd"/><path clip-rule="evenodd" d="m102.811 132.063 2.099-1.253c20.85-12.438 31.99-40.4269 33.129-83.2428h-17.933l8.757-20.5906h57.028l8.756 20.5906h-17.98c1.14 42.7885 12.278 70.7848 33.118 83.2168l2.101 1.253-10.783 17.624-2.101-1.253c-23.15-13.811-37.111-40.122-41.649-78.3957-4.539 38.2817-18.502 64.6067-41.658 78.4217l-2.101 1.253z" fill="url(#c)" fill-rule="evenodd"/><path clip-rule="evenodd" d="m218.701 132.058 2.127-1.253c21.112-12.435 32.393-40.4302 33.547-83.2316h-18.152l8.869-20.5968h103.906l8.871 20.5968h-18.046c1.157 42.7877 12.438 70.7916 33.548 83.2266l2.126 1.254-10.923 17.627-2.128-1.253c-27.785-16.368-42.5-50.2926-43.755-100.8546h-10.892v97.1186h-21.123v-97.1186h-11.167c-1.255 50.5661-15.972 84.4926-43.757 100.8606l-2.128 1.253z" fill="url(#d)" fill-rule="evenodd"/><path clip-rule="evenodd" d="m607.283 132.063 2.101-1.253c20.841-12.436 31.985-40.4269 33.126-83.2428h-17.933l8.751-20.5906h57.028l8.765 20.5906h-17.975c1.127 42.7885 12.271 70.7848 33.112 83.2168l2.101 1.253-10.782 17.624-2.101-1.253c-23.151-13.811-37.119-40.128-41.655-78.3957-4.536 38.2817-18.504 64.6057-41.655 78.4217l-2.1 1.253z" fill="url(#e)" fill-rule="evenodd"/><path clip-rule="evenodd" d="m532.295 81.5158c27.733-7.8649 37.487-23.537 40.903-34.0861h-40.903zm52.635 67.4122c-24.287-7.971-43.077-20.978-55.957-38.721v34.961h-20.65v-41.288h-23.749l8.665-20.7876h15.084v-48.1548h.304v-7.961h83.273l.427 9.9444c.028.5964.51 14.7848-8.761 29.9996-5.662 9.3064-16.903 21.8999-38.489 30.1883 10.359 14.6001 25.898 25.3771 46.259 32.0551l2.314.756-6.406 19.767z" fill="url(#f)" fill-rule="evenodd"/><path clip-rule="evenodd" d="m416.032 149.687-2.708-1.98c-37.826-27.622-37.826-95.7951-37.826-118.1954v-2.535h20.848v2.535c0 18.8626 0 75.9644 26.542 98.7074h23.061v-101.2424h20.835v101.2424h17.79l-8.749 21.468z" fill="url(#g)" fill-rule="evenodd"/><path clip-rule="evenodd" d="m954.963 132.061 2.1-1.253c20.853-12.436 31.996-40.4322 33.136-83.2524h-17.945l8.764-20.579h57.022l8.76 20.579h-17.98c1.14 42.7927 12.28 70.7944 33.12 83.2284l2.1 1.253-10.8 17.625-2.08-1.253c-23.16-13.813-37.12-40.128-41.65-78.3924-4.54 38.2734-18.504 64.6024-41.666 78.4174l-2.1 1.253z" fill="url(#h)" fill-rule="evenodd"/><path clip-rule="evenodd" d="m1166.3 132.061 2.1-1.253c20.84-12.438 31.98-40.4322 33.12-83.2524h-17.93l8.77-20.579h57.02l8.75 20.579h-17.97c1.13 42.7927 12.27 70.7944 33.11 83.2284l2.1 1.253-10.78 17.625-2.1-1.253c-23.15-13.813-37.11-40.133-41.66-78.4061-4.53 38.2871-18.5 64.6151-41.65 78.4311l-2.1 1.253z" fill="url(#i)" fill-rule="evenodd"/><path clip-rule="evenodd" d="m855.855 149.687v-53.5868l20.881 6.6048v25.502h43.825c-4.335-40.2967-26.15-67.2956-64.873-80.2791l-2.983-.9888 6.328-19.9625h89.113l-8.767 21.4815h-37.985c25.941 20.8081 39.657 51.103 40.8 90.1649l.321 11.064z" fill="url(#j)" fill-rule="evenodd"/><path clip-rule="evenodd" d="m3.69527 149.687v-53.5874l20.89213 6.6054v25.501h43.8193c-4.3348-40.295-26.1511-67.2942-64.87591-80.2778l-2.980009-.9889 6.322419-19.9627h89.1188l-8.7742 21.4818h-37.9833c25.9378 20.8083 39.6545 51.1021 40.7989 90.1646l.3219 11.064z" fill="url(#k)" fill-rule="evenodd"/><path clip-rule="evenodd" d="m1135.94 145.281c-34.65-11.483-76.39-39.486-78.41-107.6687l-.31-10.6357h95.44l-8.53 20.6376h-65.57c3.7 34.3456 20.63 58.8008 50.38 72.7608v-30.893h-22.56l8.53-20.6515h34.34v80.8565z" fill="url(#l)" fill-rule="evenodd"/></svg>