<svg width="45" height="46" viewBox="0 0 45 46" fill="none" xmlns="http://www.w3.org/2000/svg">
<path fill-rule="evenodd" clip-rule="evenodd" d="M22.5 22.8755L7.27315 13.9638L11.0282 8.28382L5 4.74328L7.28607 0.875488L17.3955 6.8132L13.6446 12.485L22.5 17.668L31.3554 12.485L27.6045 6.8132L37.7139 0.875488L40 4.74328L33.9718 8.28382L37.7269 13.9638L22.5 22.8755Z" fill="white"/>
<path fill-rule="evenodd" clip-rule="evenodd" d="M22.5 40.7837L15.6754 36.8755L14 41.0079L22.5 45.8755L31 41.0081L29.3246 36.8755L22.5 40.7837Z" fill="white"/>
<path fill-rule="evenodd" clip-rule="evenodd" d="M0 27.8755V33.2028L6.28666 36.8755L8 32.5593L0 27.8755Z" fill="white"/>
<path fill-rule="evenodd" clip-rule="evenodd" d="M3 21.8755V26.7593L8.40919 29.8755L10 25.9212L3 21.8755Z" fill="white"/>
<path fill-rule="evenodd" clip-rule="evenodd" d="M22.4999 8.87549L26 12.3766L22.4999 15.8755L19 12.3766L22.4999 8.87549Z" fill="white"/>
<path fill-rule="evenodd" clip-rule="evenodd" d="M19 23.0607L7 15.8755V21.163L13.4133 25.0277L8.57865 37.5249L12.4953 39.8755L19 23.0607Z" fill="white"/>
<path fill-rule="evenodd" clip-rule="evenodd" d="M45 27.8755V33.2028L38.7133 36.8755L37 32.5593L45 27.8755Z" fill="white"/>
<path fill-rule="evenodd" clip-rule="evenodd" d="M42 21.8755V26.7593L36.5908 29.8755L35 25.9212L42 21.8755Z" fill="white"/>
<path fill-rule="evenodd" clip-rule="evenodd" d="M26 23.0607L38 15.8755V21.163L31.5867 25.0277L36.4214 37.5249L32.5047 39.8755L26 23.0607Z" fill="white"/>
</svg>
